:SAMPLES-PER-SECOND 25
:FULLY-SPECIFIED
:DEGREES
246
root  3.63598 73.9196 -33.5639 -174.075 14.7249 -177.778
RightUpLeg  -19.6147 3.38713 2.3358
RightLeg  42.1541 9.81919 9.12532
RightFoot  -13.4455 -0.129957 -2.12611
RightToes  2.84633e-005 7.89722e-005 -0.000426369
Spine  7.9009 0.36769 -1.02749
Spine1  15.7978 0.73609 -0.160553
HEad  21.3557 3.47172 -3.56603
LeftShoulder1  -3.88251e-019 0 -3.92111e-022
LeftArm  -31.7175 -4.71294 -81.1955
LeftForeArm  27.0398 2.09665 1.31867
LeftHand  -0.763273 -5.73602 8.27418
RightShoulder  7.45443e-017 -2.42657e-020 1.96277e-018
RightArm  -1.22133 -5.04646 71.1253
RightForeArm  4.59572 20.5383 5.96683
RightHand  -1.73827 12.0917 -11.8886
LeftUpLeg  -33.7434 4.7102 1.77541
LeftLeg  23.6625 7.04821 3.71009
LeftFoot  -3.21947 0.228811 -2.95049
LeftToes  3.91355e-005 3.11907e-005 -4.10385e-006
247
root  3.38831 73.5098 -33.9483 -173.692 14.072 -178.405
RightUpLeg  -25.701 -0.214991 0.712116
RightLeg  52.5187 9.82335 13.1218
RightFoot  -7.63353 -0.123895 1.94579
RightToes  2.84633e-005 7.89722e-005 -0.000426369
Spine  8.66212 -0.352527 -1.50525
Spine1  17.3295 -0.62976 -0.833804
HEad  19.8989 3.65803 -3.54936
LeftShoulder1  -3.88251e-019 0 -3.92111e-022
LeftArm  -31.3146 -6.84435 -80.958
LeftForeArm  24.9972 2.15628 0.972625
LeftHand  -0.687697 -5.878 7.40239
RightShoulder  7.45443e-017 -2.42657e-020 1.96277e-018
RightArm  -0.883081 -4.09608 69.9979
RightForeArm  4.19106 21.0297 5.64301
RightHand  -1.88312 11.8408 -13.0099
LeftUpLeg  -36.1503 3.66902 0.701553
LeftLeg  28.0666 6.82117 4.27792
LeftFoot  -6.0366 0.163741 -2.74
LeftToes  3.91355e-005 3.11907e-005 -4.10385e-006
248
root  3.20592 73.1265 -34.3061 -173.258 13.2761 -178.908
RightUpLeg  -32.6842 -2.23539 -0.58977
RightLeg  61.9132 7.9464 15.1715
RightFoot  -2.04017 -0.492083 6.06756
RightToes  2.84633e-005 7.89722e-005 -0.000426369
Spine  9.27896 -0.825515 -1.71709
Spine1  18.5971 -1.48677 -1.13137
HEad  18.9032 3.18671 -3.62335
LeftShoulder1  -3.88251e-019 0 -3.92111e-022
LeftArm  -30.5562 -9.62293 -81.2029
LeftForeArm  24.9227 2.13608 1.29292
LeftHand  -0.752013 -5.75315 8.14195
RightShoulder  7.45443e-017 -2.42657e-020 1.96277e-018
RightArm  -1.44915 -3.34416 68.7741
RightForeArm  4.2392 20.7044 5.81147
RightHand  -1.70074 11.8885 -11.7726
LeftUpLeg  -38.4115 3.30167 -0.416438
LeftLeg  31.9125 6.28293 4.56346
LeftFoot  -8.20581 0.108828 -2.20186
LeftToes  3.91355e-005 3.11907e-005 -4.10385e-006
249
root  3.02451 72.9094 -34.61 -172.949 12.6907 -178.376
RightUpLeg  -38.4891 -3.22769 -0.464292
RightLeg  66.167 4.75974 11.0344
RightFoot  -4.1653 -0.394001 5.53983
RightToes  2.84633e-005 7.89722e-005 -0.000426369
Spine  10.1532 -0.917886 -1.61637
Spine1  20.3923 -1.59161 -0.775998
HEad  17.1104 2.22925 -3.45775
LeftShoulder1  -3.88251e-019 0 -3.92111e-022
LeftArm  -28.7335 -12.5159 -81.1573
LeftForeArm  24.5149 2.146 1.20884
LeftHand  -0.821117 -5.81777 8.81895
RightShoulder  7.45443e-017 -2.42657e-020 1.96277e-018
RightArm  -2.04693 -2.52008 67.9371
RightForeArm  3.79107 20.6729 5.85287
RightHand  -1.80482 11.9553 -12.419
LeftUpLeg  -39.7534 3.63504 -0.5876
LeftLeg  34.6298 5.53083 4.46125
LeftFoot  -9.77516 0.0808355 -1.56367
LeftToes  3.91355e-005 3.11907e-005 -4.10385e-006
250
root  2.82743 72.7782 -34.8715 -172.201 12.6746 -176.984
RightUpLeg  -43.4105 -3.35588 0.754998
RightLeg  64.7582 3.60081 7.76044
RightFoot  -8.80177 -0.131854 3.20291
RightToes  2.84633e-005 7.89722e-005 -0.000426369
Spine  10.9522 -0.793606 -0.580145
Spine1  22.0583 -1.38329 1.09623
HEad  14.5051 0.912791 -4.55775
LeftShoulder1  -3.88251e-019 0 -3.92111e-022
LeftArm  -28.2776 -14.8186 -81.6796
LeftForeArm  23.9966 2.2925 0.510564
LeftHand  -0.90117 -6.31219 9.25192
RightShoulder  7.45443e-017 -2.42657e-020 1.96277e-018
RightArm  -2.75027 -1.73691 66.2211
RightForeArm  4.38991 20.8031 5.62585
RightHand  -1.67583 11.6461 -11.7616
LeftUpLeg  -41.2601 3.65506 0.352471
LeftLeg  37.0032 5.60661 4.90128
LeftFoot  -10.3694 0.0667477 -0.560769
LeftToes  3.91355e-005 3.11907e-005 -4.10385e-006
